<?xml version="1.0" encoding="UTF-8"?>
<svg xmlns="http://www.w3.org/2000/svg" fill="none" viewBox="0 0 240 240">
  <path fill="#FF6300" fill-rule="evenodd" d="M19.945 0H219.38c11.016 0 19.942 8.929 19.942 19.942v199.427c0 11.014-8.926 19.942-19.942 19.942H19.945C8.93 239.311 0 230.382 0 219.369V19.942C0 8.93 8.93 0 19.945 0Z" clip-rule="evenodd"></path>
  <path fill="#fff" d="M165.315 86.488c20.54 20.587 20.224 54.203-.703 75.13-20.926 20.926-54.554 21.243-75.13.703l-9.643 9.643s-.035-.035-.047-.035h.012c-25.766-25.766-25.39-68.065.832-94.3 26.223-26.222 68.533-26.597 94.299-.831l.047.046 10.463-10.463-.047-.047c-31.483-31.507-83.003-31.05-115.061 1.008-32.047 32.046-32.504 83.566-1.02 115.062 0 0 .035.035.047.035l10.463-10.464c12.49 12.479 29.176 19.228 46.927 19.076 17.775-.153 34.601-7.23 47.326-19.954 26.222-26.223 26.597-68.487.878-94.253l-9.643 9.644Z"></path>
  <path fill="#fff" d="M127.023 162.836c10.194-.093 19.943-4.136 27.313-11.506 15.115-15.115 15.349-39.498.516-54.379l-9.644 9.643c9.62 9.667 9.456 25.426-.339 35.245h-.012c-9.819 9.831-25.567 9.995-35.233.364l10.451-10.452s-.035-.035-.047-.035h.012c-3.972-3.996-3.913-10.499.129-14.553s10.557-4.101 14.529-.129c0 0 .012.024.024.035l-14.658 14.658c3.972 3.926 10.463 3.867 14.482-.175 4.019-4.019 4.101-10.499.176-14.483l10.451-10.451s-.035-.035-.035-.047c-9.667-9.667-25.449-9.526-35.292.316-9.83 9.831-9.971 25.625-.316 35.292 0 0 .023.012.035.024l-9.643 9.643c7.241 7.206 16.884 11.072 27.066 10.979l.035.011Z"></path>
  <path fill="#fff" d="M90.104 87.132c-20.938 20.939-21.243 54.602-.68 75.165 0 0 .036.035.048.035l10.463-10.463s-.035-.035-.047-.035h.012c-14.857-14.881-14.658-39.299.492-54.426 15.127-15.127 39.545-15.35 54.414-.492 0 0 .035.035.035.047L165.305 86.5s-.036-.036-.036-.047c-20.563-20.564-54.226-20.27-75.165.68Z"></path>
</svg>
